<svg width="112" height="80" viewBox="0 0 112 80" fill="none" xmlns="http://www.w3.org/2000/svg">
<g clip-path="url(#clip0_3422_250)">
<path d="M39.1334 67.2704C38.7542 67.2528 38.4013 67.2235 38.0513 67.2235C27.2975 67.2206 16.5438 67.2206 5.79294 67.2235C3.76002 67.2235 3.03086 68.0958 3.35461 70.1125C3.97586 73.9731 7.02377 76.6308 10.9234 76.6894C12.1629 76.7099 13.4025 76.6689 14.6421 76.704C15.8204 76.7362 16.5263 77.4182 16.4971 78.4134C16.4679 79.388 15.8059 80.0144 14.6509 79.9734C12.4371 79.8915 10.1446 80.0642 8.03586 79.5285C3.75127 78.4397 1.18461 75.4542 0.207524 71.1135C0.160857 70.9057 0.0704403 70.7096 0.00335693 70.5076C0.00335693 69.7027 0.00335693 68.8978 0.00335693 68.0928C0.97169 65.0459 3.07461 63.7053 6.21877 63.9278C6.43752 63.9424 6.65627 63.9278 6.87502 63.919C6.94502 63.9161 7.01502 63.8926 7.27169 63.84C7.27169 63.4243 7.27169 62.9706 7.27169 62.514C7.27169 43.6761 7.26877 24.8381 7.27461 6.00007C7.27461 3.00578 8.73877 0.886648 11.3025 0.195883C11.8567 0.0466072 12.4517 0.00855656 13.0292 0.00562959C41.6738 -0.000224356 70.3242 -0.00315133 98.9717 0.00270262C102.527 0.00270262 104.729 2.30038 104.729 6.00007C104.735 24.8 104.732 43.6029 104.732 62.4028C104.732 62.8711 104.732 63.3365 104.732 63.9746C108.209 63.5707 110.898 64.4956 112 68.0928C112 68.8978 112 69.7027 112 70.5076C111.811 71.1691 111.648 71.8364 111.432 72.4862C109.956 76.9235 105.969 79.912 101.29 79.9676C96.2621 80.0261 91.2309 79.9851 86.1996 79.9851C65.2754 79.9851 44.3542 79.9851 23.43 79.9851C21.6713 79.9851 20.9654 79.5402 20.9334 78.4104C20.9013 77.2426 21.6975 76.6923 23.4359 76.6923C49.1696 76.6923 74.9063 76.6952 100.64 76.6894C104.869 76.6894 107.911 74.2073 108.623 70.2149C109.002 68.0811 108.276 67.2206 106.097 67.2206C95.4163 67.2206 84.7355 67.2206 74.0575 67.2206M10.55 63.8604C40.9417 63.8604 71.1438 63.8604 101.454 63.8604C101.454 63.398 101.454 63.0058 101.454 62.6106C101.454 43.8429 101.454 25.0781 101.454 6.31033C101.454 3.94533 100.812 3.29555 98.4846 3.29555C70.1609 3.29555 41.8371 3.29555 13.5104 3.29555C11.1888 3.29555 10.55 3.94533 10.55 6.31911C10.55 25.0869 10.55 43.8517 10.55 62.6194C10.55 63.0116 10.55 63.4068 10.55 63.8604Z" fill="#051C2C"/>
<path d="M79.8924 45.9476C79.7124 46.2658 79.58 46.6253 79.3444 46.8969C78.6162 47.7324 77.4962 47.8359 76.4848 47.1918C73.98 45.5932 71.4753 43.992 68.9731 42.3908C68.764 42.2563 68.5521 42.1244 68.2768 41.9485C68.2662 42.1425 68.2503 42.2821 68.2503 42.4244C68.2476 43.7333 68.2529 45.0422 68.2476 46.3511C68.2397 48.5318 66.7305 50.0114 64.5064 50.0114C54.7494 50.014 44.9951 50.014 35.2382 50.0114C32.977 50.0114 31.4757 48.5421 31.4731 46.333C31.4704 38.0036 31.4704 29.6717 31.4731 21.3423C31.4731 19.1539 32.9717 17.6821 35.1984 17.6769C37.4199 17.6717 39.644 17.6769 41.8655 17.6769C41.9767 17.6769 42.0879 17.6666 42.1964 17.6872C42.5857 17.7571 42.824 17.9796 42.8213 18.3779C42.816 18.7737 42.5777 19.0039 42.1832 19.0531C41.9661 19.0815 41.7437 19.0634 41.5213 19.0634C39.4242 19.0634 37.3299 19.0608 35.2329 19.0634C33.7528 19.066 32.8922 19.9119 32.8922 21.3656C32.8922 29.6795 32.8922 37.9959 32.8922 46.3097C32.8922 47.7894 33.7501 48.6275 35.2646 48.6275C44.9898 48.6275 54.715 48.6275 64.4375 48.6275C65.9732 48.6275 66.8258 47.7868 66.8258 46.2735C66.8284 41.5915 66.8258 38.5102 66.8258 33.8281C66.8258 33.66 66.8152 33.4867 66.8364 33.3211C66.8867 32.9719 67.1038 32.7676 67.4613 32.7365C67.8161 32.7081 68.0808 32.8633 68.1841 33.2021C68.2371 33.3755 68.2397 33.5643 68.2397 33.7479C68.2423 36.3192 68.2476 37.2923 68.2344 39.8635C68.2318 40.1584 68.3191 40.3317 68.5786 40.4947C71.4329 42.3054 74.2766 44.1265 77.1229 45.9476C77.4168 46.1364 77.7028 46.3304 78.0787 46.1364C78.4706 45.9347 78.4706 45.5854 78.4706 45.2207C78.468 37.6286 78.468 30.039 78.4706 22.4469C78.4706 22.0977 78.4653 21.764 78.1052 21.5622C77.7398 21.3579 77.4486 21.5286 77.1494 21.7226C74.3083 23.5488 71.4647 25.3751 68.613 27.1884C68.3244 27.3721 68.2053 27.5661 68.237 27.8946C68.2662 28.2154 68.2476 28.5413 68.2423 28.8646C68.2344 29.4079 67.9723 29.7183 67.5327 29.7208C67.0853 29.7234 66.8284 29.426 66.8258 28.875C66.8232 26.4124 66.8258 23.9472 66.8232 21.4846C66.8232 19.8731 65.9971 19.0634 64.3607 19.0634C58.0406 19.0634 52.7795 19.0634 46.4593 19.0634C46.3163 19.0634 46.176 19.0712 46.033 19.0608C45.5988 19.0324 45.2996 18.7426 45.3049 18.3624C45.3102 17.9847 45.612 17.7054 46.0516 17.6795C46.1628 17.6717 46.2713 17.6769 46.3825 17.6769C52.7345 17.6769 58.0273 17.6769 64.3793 17.6769C66.7676 17.6769 68.2397 19.1151 68.2423 21.451C68.245 22.7133 68.2423 23.9757 68.2423 25.238C68.2423 25.3854 68.2423 25.5355 68.2423 25.7528C68.4409 25.6364 68.5733 25.5665 68.6978 25.4863C71.1999 23.8825 73.7391 22.3305 76.1882 20.6543C77.5598 19.7179 79.2729 19.9584 79.8872 21.7433C79.8924 29.8088 79.8924 37.8769 79.8924 45.9476Z" fill="#DC2648" stroke="#DC2648" stroke-width="2" stroke-miterlimit="10"/>
<path d="M42.3553 33.8134C42.3553 31.2887 42.35 28.764 42.3579 26.2393C42.3606 25.1167 43.0305 24.2579 44.1213 24.1182C44.5873 24.0587 45.1645 24.1415 45.5591 24.3743C47.3781 25.4478 49.1521 26.5911 50.934 27.7216C51.3444 27.9828 51.4371 28.3682 51.2146 28.7097C50.9843 29.0641 50.5792 29.1339 50.1423 28.8623C48.4689 27.8198 46.8035 26.7696 45.1354 25.7194C44.8256 25.5228 44.5211 25.321 44.1372 25.5435C43.7824 25.7479 43.7718 26.0815 43.7718 26.4308C43.7745 31.3715 43.7745 36.3122 43.7718 41.2529C43.7718 41.6047 43.7877 41.9358 44.1425 42.1376C44.5052 42.3445 44.8018 42.1712 45.101 41.9823C49.0329 39.5094 52.9675 37.0416 56.8994 34.5713C57.6619 34.0927 57.6566 33.5857 56.8861 33.0994C55.4696 32.207 55.1148 32.0906 53.6929 31.2059C53.3779 31.0093 53.1554 30.7791 53.2296 30.3807C53.3249 29.8608 53.8809 29.6797 54.4158 30.0134C55.6655 30.7894 55.8482 30.7998 57.0926 31.581C57.3574 31.7465 57.6275 31.9069 57.887 32.0802C59.2373 32.996 59.2214 34.7317 57.8367 35.6241C56.3645 36.5734 54.8738 37.4917 53.3911 38.423C50.889 39.9957 48.3868 41.5659 45.8847 43.1412C45.3684 43.4671 44.8309 43.7025 44.1981 43.6017C43.0781 43.4232 42.3606 42.5877 42.3579 41.4262C42.35 38.8938 42.3553 36.3536 42.3553 33.8134Z" fill="#DC2648" stroke="#DC2648" stroke-width="2" stroke-miterlimit="10"/>
</g>
<defs>
<clipPath id="clip0_3422_250">
<rect width="112" height="80" fill="white"/>
</clipPath>
</defs>
</svg>
