<svg width="97" height="86" viewBox="0 0 97 86" fill="none" xmlns="http://www.w3.org/2000/svg">
<g clip-path="url(#clip0_3420_219)">
<path d="M97 77.7465C96.9393 77.8473 96.8507 77.9406 96.8178 78.0491C95.3095 83.0849 91.5362 85.9445 86.2621 85.9848C82.4104 86.0151 78.5586 85.9924 74.7043 85.9924C53.4843 85.9924 32.2667 85.9848 11.0466 86C7.37958 86.0025 4.24402 84.8375 2.06254 81.8442C1.17932 80.6338 0.587127 79.146 0.144251 77.6985C-0.458061 75.7341 0.938897 74.0522 3.01156 73.9967C3.76824 73.9765 4.52746 73.9942 5.28414 73.9916C6.00793 73.9916 6.72919 73.9916 7.60229 73.9916C7.60229 73.5453 7.60229 73.1519 7.60229 72.7585C7.60229 59.3834 7.60229 46.0109 7.60482 32.6358C7.60482 32.2601 7.59216 31.8717 7.67821 31.5111C7.85536 30.7748 8.38428 30.3713 9.13084 30.4268C9.86728 30.4823 10.3506 30.916 10.424 31.6927C10.4569 32.0356 10.4443 32.3836 10.4443 32.7316C10.4443 43.8094 10.4443 54.8847 10.4443 65.9626C10.4443 66.3307 10.4443 66.7014 10.4443 67.1704C10.9125 67.1704 11.282 67.1704 11.6514 67.1704C29.3032 67.1704 46.9525 67.1704 64.6042 67.1704C66.1201 67.1704 66.8338 67.6395 66.8085 68.6179C66.7832 69.5661 66.0999 70.0023 64.6371 70.0048C46.9854 70.0048 29.3361 70.0048 11.6843 70.0048C11.3098 70.0048 10.9378 70.0048 10.505 70.0048C10.505 71.3514 10.505 72.6198 10.505 73.9412C35.8325 73.9412 61.1144 73.9412 86.4671 73.9412C86.4671 72.6627 86.4671 71.3943 86.4671 70.0048C86.1179 70.0048 85.7813 70.0048 85.4473 70.0048C81.1855 70.0048 76.9213 70.0048 72.6595 70.0048C72.3761 70.0048 72.0825 70.0351 71.8092 69.9721C71.0829 69.8056 70.6425 69.3542 70.6451 68.5801C70.6501 67.8059 71.093 67.3419 71.8244 67.2058C72.2521 67.1251 72.7051 67.173 73.148 67.173C77.5666 67.1704 81.9827 67.173 86.538 67.173C86.538 66.7821 86.538 66.4492 86.538 66.1164C86.538 52.0806 86.538 38.0474 86.538 24.0116C86.538 21.6664 85.4726 20.6023 83.1342 20.5972C81.6815 20.5947 80.2289 20.6249 78.7763 20.5846C78.1765 20.5669 77.7842 20.7384 77.4401 21.2453C76.734 22.2867 75.9722 23.2929 75.2181 24.3016C74.3779 25.4237 73.2644 25.8096 72.0699 25.4187C70.9361 25.048 70.2756 24.0772 70.2528 22.7255C70.2402 22.0674 70.2503 21.4117 70.2503 20.6779C68.6888 20.6779 67.1932 20.6779 65.571 20.6779C65.571 21.0662 65.571 21.4319 65.571 21.7975C65.571 27.0855 65.5735 32.371 65.5684 37.659C65.5659 39.7747 64.6979 40.6573 62.5948 40.6598C53.1856 40.6649 43.7764 40.6649 34.3647 40.6598C32.2996 40.6573 31.4138 39.7722 31.4113 37.7347C31.4062 32.4164 31.4088 27.0981 31.4088 21.7799C31.4088 21.4369 31.4088 21.0965 31.4088 20.6779C29.8752 20.6779 28.4099 20.6779 26.7902 20.6779C26.7902 21.2957 26.8003 21.9135 26.7877 22.5288C26.732 25.0934 25.1908 26.6089 22.6095 26.614C16.4522 26.6215 10.295 26.6241 4.13773 26.614C1.59688 26.6014 0.0101229 25.0177 0.00759216 22.4784C-0.00253072 16.3734 -0.00253072 10.2683 0.00759216 4.1633C0.0101229 1.68195 1.56905 0.0428461 4.06434 0.0277159C10.2848 -0.0101096 16.5054 -0.0101096 22.7259 0.0251942C25.2389 0.0403244 26.7776 1.62647 26.7927 4.14313C26.8206 8.2661 26.8003 12.3891 26.8003 16.5095C26.8003 16.8827 26.8003 17.256 26.8003 17.6922C28.3567 17.6922 29.822 17.6922 31.4189 17.6922C31.4189 17.3392 31.4189 17.0038 31.4189 16.6684C31.4189 12.1066 31.4164 7.54238 31.4214 2.98062C31.424 0.938049 32.3122 0.0176291 34.3469 0.0176291C43.7891 0.00754232 53.2286 0.00754232 62.6708 0.0176291C64.6624 0.0201508 65.5735 0.945614 65.576 2.9075C65.5836 7.46925 65.5786 12.0335 65.5786 16.5953C65.5786 16.9357 65.5786 17.2761 65.5786 17.6872C67.1552 17.6872 68.6483 17.6872 70.2579 17.6872C70.2579 17.319 70.2579 16.9836 70.2579 16.6457C70.2579 12.3966 70.2528 8.15011 70.2604 3.90104C70.2629 1.39952 71.6017 0.0226725 74.097 0.0151074C80.444 -0.00254447 86.7911 0.0277159 93.1381 -2.27724e-05C95.0589 -0.00758787 96.2484 0.94057 97.0051 2.59228C97.0051 7.69116 97.0051 12.7875 97.0051 17.8864C96.5267 18.5698 96.1826 19.4473 95.5347 19.8861C94.8615 20.3425 93.9075 20.5014 93.0571 20.5644C91.6349 20.6678 90.1974 20.5922 88.9599 20.5922C89.1143 22.0295 89.3699 23.3232 89.3724 24.6168C89.4002 40.6548 89.3901 56.6928 89.3901 72.7308C89.3901 73.1267 89.3901 73.5226 89.3901 73.9916C90.7744 73.9916 92.0347 74.0496 93.2874 73.9765C95.0792 73.8731 96.3344 74.5489 97.0051 76.2334C97 76.7378 97 77.2421 97 77.7465ZM37.1459 37.775C37.1459 35.6845 37.1206 33.7025 37.151 31.7255C37.1991 28.7246 39.1351 26.271 42.015 25.4994C42.2403 25.4389 42.4706 25.3859 42.8249 25.3002C41.2887 23.3257 41.3343 21.1217 41.4912 18.9077C41.7215 15.6547 43.455 13.7231 46.6513 13.2364C47.5472 13.1002 48.4785 13.1128 49.3895 13.1532C53.2565 13.3297 55.314 15.4227 55.5265 19.2784C55.6455 21.4117 55.5519 23.4846 54.2182 25.28C54.904 25.5044 55.4987 25.6305 56.0327 25.8877C58.5077 27.0855 59.7782 29.0878 59.8364 31.8188C59.8794 33.7882 59.844 35.7602 59.844 37.7649C60.8588 37.7649 61.7572 37.7649 62.6581 37.7649C62.6581 26.1122 62.6581 14.5224 62.6581 2.9201C53.1654 2.9201 43.746 2.9201 34.3292 2.9201C34.3292 14.5754 34.3292 26.1626 34.3292 37.7801C35.2833 37.775 36.1539 37.775 37.1459 37.775ZM13.385 23.7771C16.4143 23.7771 19.4435 23.7796 22.4728 23.7745C23.6724 23.772 23.9507 23.5199 23.9533 22.3523C23.9634 16.3456 23.9609 10.3415 23.9533 4.33478C23.9507 3.16975 23.6471 2.85202 22.5057 2.8495C16.4472 2.83941 10.3886 2.84193 4.33259 2.8495C3.17605 2.85202 2.84959 3.17984 2.84959 4.29947C2.84453 10.3062 2.84453 16.3103 2.84959 22.317C2.84959 23.4745 3.14822 23.7695 4.30223 23.772C7.32897 23.7796 10.3582 23.7771 13.385 23.7771ZM73.0948 22.0573C73.1657 22.0774 73.234 22.0951 73.3049 22.1153C74.0843 21.0511 74.9017 20.0122 75.6281 18.9127C76.1924 18.0604 76.8985 17.7376 77.9234 17.7452C82.9089 17.783 87.897 17.7653 92.885 17.7603C94.0871 17.7603 94.158 17.6821 94.158 16.4667C94.1605 12.3462 94.1605 8.22576 94.158 4.1053C94.158 2.97054 94.0466 2.8495 92.9255 2.84697C86.7405 2.84193 80.5528 2.84193 74.3678 2.84697C73.1859 2.84697 73.0999 2.9428 73.0999 4.15574C73.0973 9.84973 73.0999 15.5437 73.0999 21.2352C73.0948 21.5101 73.0948 21.7824 73.0948 22.0573ZM35.5794 76.8891C24.6239 76.8891 13.7646 76.8891 2.86478 76.8891C2.89261 77.0782 2.90021 77.2018 2.92804 77.3203C3.79102 80.9011 6.81776 83.1479 10.8517 83.1555C19.15 83.1681 27.4482 83.1605 35.7464 83.158C36.0451 83.158 36.3462 83.1252 36.8119 83.1C35.3643 81.1583 35.5996 79.0149 35.5794 76.8891ZM60.1603 83.1076C60.6234 83.1328 60.8664 83.158 61.1093 83.158C69.4708 83.1605 77.8323 83.1631 86.1938 83.153C86.7607 83.153 87.3301 83.1051 87.8919 83.0294C91.0123 82.6032 93.8366 79.789 94.0669 76.9017C83.2 76.9017 72.3356 76.9017 61.4105 76.9017C61.3978 79.0376 61.6205 81.1533 60.1603 83.1076ZM56.9868 37.7574C56.9868 35.5937 57.0602 33.4907 56.964 31.3951C56.8881 29.7611 55.691 28.4422 54.0688 28.248C52.7427 28.0892 51.3838 28.2153 49.9185 28.2153C49.9185 28.9163 49.9286 29.5997 49.9159 30.2831C49.8932 31.3976 49.3744 32.0356 48.5063 32.0407C47.6282 32.0457 47.1043 31.4153 47.0815 30.2982C47.0663 29.5946 47.079 28.8886 47.079 28.1194C46.2692 28.1194 45.639 28.1623 45.0165 28.1119C41.6354 27.842 39.7121 29.35 39.9727 33.1679C40.0765 34.6859 39.9905 36.2166 39.9905 37.7574C45.7276 37.7574 51.3281 37.7574 56.9868 37.7574ZM58.5254 76.8916C51.7735 76.8916 45.1354 76.8916 38.429 76.8916C38.429 77.4892 38.4695 78.0238 38.4214 78.5484C38.1709 81.3752 40.1195 83.2564 43.0602 83.1807C46.6842 83.0874 50.3133 83.1631 53.9398 83.153C54.4409 83.1505 54.9521 83.1252 55.4456 83.0395C57.0171 82.7621 58.3458 81.4206 58.5052 79.8546C58.6064 78.8938 58.5254 77.9179 58.5254 76.8916ZM52.7326 20.4963C52.6921 19.7348 52.6947 19.2279 52.6314 18.7312C52.4264 17.0845 51.6141 16.2145 49.9691 16.0405C49.0023 15.9371 48.0103 15.9371 47.0436 16.038C45.3657 16.2095 44.5128 17.1147 44.3534 18.7992C44.275 19.6415 44.2572 20.4963 44.2927 21.3436C44.3787 23.3837 46.0009 25.0934 47.9597 25.2699C50.1918 25.4691 52.1253 24.1805 52.596 22.1127C52.7352 21.5075 52.7048 20.8645 52.7326 20.4963Z" fill="#051C2C"/>
<path d="M23.5129 60.1856C22.2526 60.1856 20.9898 60.1982 19.7295 60.1831C18.082 60.1604 17.0798 59.1794 17.0647 57.5302C17.0419 55.0161 17.0393 52.502 17.0672 49.9878C17.0849 48.3992 18.082 47.4006 19.6865 47.3804C22.2096 47.3476 24.7327 47.3501 27.2533 47.3779C28.9084 47.3955 29.9005 48.3966 29.9131 50.0408C29.9334 52.5221 29.9334 55.006 29.9131 57.4874C29.9005 59.1946 28.911 60.1629 27.2002 60.1831C25.9728 60.1957 24.7429 60.1856 23.5129 60.1856ZM27.0509 50.2577C24.6366 50.2577 22.3184 50.2577 19.98 50.2577C19.98 52.6482 19.98 54.9833 19.98 57.2882C22.3817 57.2882 24.7024 57.2882 27.0509 57.2882C27.0509 54.9304 27.0509 52.6407 27.0509 50.2577Z" fill="#DC2648"/>
<path d="M73.4719 60.1855C72.2116 60.1855 70.9488 60.2031 69.6885 60.1804C68.0992 60.1552 67.0945 59.1642 67.0793 57.573C67.0565 55.0286 67.054 52.4817 67.0818 49.9373C67.097 48.447 68.0688 47.4156 69.5594 47.3878C72.1762 47.3399 74.7929 47.3425 77.4097 47.3853C78.9079 47.4105 79.8999 48.4117 79.9227 49.902C79.9607 52.4792 79.9581 55.0563 79.9252 57.631C79.905 59.1692 78.8902 60.1325 77.354 60.1829C77.2908 60.1855 77.2275 60.1855 77.1642 60.1855C75.9318 60.1855 74.7018 60.1855 73.4719 60.1855ZM69.9846 50.2525C69.9846 52.638 69.9846 54.9731 69.9846 57.2906C72.3786 57.2906 74.6993 57.2906 77.0326 57.2906C77.0326 54.9176 77.0326 52.6052 77.0326 50.2525C74.6538 50.2525 72.3356 50.2525 69.9846 50.2525Z" fill="#DC2648"/>
<path d="M40.16 60.1854C38.8997 60.1854 37.6369 60.2005 36.3766 60.1829C34.7772 60.1602 33.7573 59.1843 33.7396 57.6032C33.7117 55.0588 33.7117 52.5119 33.7396 49.9675C33.7573 48.4267 34.7417 47.4105 36.2855 47.3852C38.8693 47.3449 41.4557 47.3449 44.0421 47.3852C45.5859 47.4105 46.5678 48.4267 46.5855 49.97C46.6133 52.5144 46.6133 55.0613 46.5855 57.6057C46.5678 59.1893 45.5504 60.1602 43.9485 60.1829C42.6831 60.2005 41.4228 60.1854 40.16 60.1854ZM36.6094 57.2779C39.0237 57.2779 41.3672 57.2779 43.6777 57.2779C43.6777 54.8898 43.6777 52.5774 43.6777 50.2675C41.2862 50.2675 38.9655 50.2675 36.6094 50.2675C36.6094 52.6203 36.6094 54.91 36.6094 57.2779Z" fill="#DC2648"/>
<path d="M56.8324 60.1853C55.6025 60.1853 54.3725 60.1954 53.1426 60.1828C51.4242 60.1651 50.4195 59.1993 50.4044 57.5098C50.3841 55.0284 50.3866 52.5446 50.4044 50.0632C50.417 48.4115 51.3964 47.3978 53.0439 47.3801C55.567 47.3499 58.0902 47.3499 60.6108 47.3801C62.2583 47.4003 63.2402 48.409 63.2554 50.0607C63.2756 52.542 63.2756 55.0259 63.2554 57.5073C63.2402 59.2044 62.2405 60.1651 60.5222 60.1828C59.2922 60.1954 58.0623 60.1853 56.8324 60.1853ZM60.383 50.2826C57.9687 50.2826 55.6278 50.2826 53.3122 50.2826C53.3122 52.6782 53.3122 54.9906 53.3122 57.2954C55.7037 57.2954 58.0244 57.2954 60.383 57.2954C60.383 54.9452 60.383 52.6555 60.383 50.2826Z" fill="#DC2648"/>
<path d="M9.07263 13.201C9.07263 12.1015 9.0701 10.9996 9.07263 9.90011C9.07769 8.7603 9.59649 7.89788 10.5835 7.35823C11.6135 6.7959 12.6612 6.86903 13.6203 7.53728C15.2451 8.67456 16.8748 9.80933 18.4515 11.0097C20.0661 12.2377 20.0838 14.3761 18.4768 15.6143C16.8824 16.8423 15.2476 18.0275 13.5672 19.1371C11.5932 20.4383 9.14602 19.1295 9.08022 16.7793C9.04732 15.5916 9.07516 14.3963 9.07263 13.201ZM11.9602 16.8373C13.6482 15.6218 15.202 14.5022 16.8394 13.3246C15.159 12.1192 13.6203 11.0172 11.9602 9.8295C11.9602 12.2276 11.9602 14.4366 11.9602 16.8373Z" fill="#289FA6"/>
<path d="M85.0398 10.1901C85.0525 10.9592 84.3692 11.6426 83.5973 11.63C82.8507 11.6174 82.2282 10.9895 82.2155 10.238C82.2029 9.47648 82.7875 8.85362 83.5492 8.81832C84.3464 8.78302 85.0272 9.4084 85.0398 10.1901Z" fill="#289FA6"/>
<path d="M77.9943 8.81592C78.7611 8.81592 79.371 9.406 79.3912 10.1675C79.414 10.9619 78.7712 11.6301 77.9892 11.6276C77.2578 11.6251 76.5999 10.9871 76.572 10.2558C76.5442 9.48165 77.1996 8.81592 77.9943 8.81592Z" fill="#289FA6"/>
<path d="M89.2281 11.6277C88.4462 11.6201 87.8211 10.9468 87.854 10.15C87.8843 9.37833 88.4866 8.80843 89.261 8.81599C90.0304 8.82608 90.6327 9.41616 90.6504 10.1802C90.6656 10.9594 90.0025 11.6378 89.2281 11.6277Z" fill="#289FA6"/>
</g>
<defs>
<clipPath id="clip0_3420_219">
<rect width="97" height="86" fill="white"/>
</clipPath>
</defs>
</svg>
