<svg width="115" height="80" viewBox="0 0 115 80" fill="none" xmlns="http://www.w3.org/2000/svg">
<g clip-path="url(#clip0_3420_197)">
<path d="M21.8474 52.5599C23.6926 50.8939 25.2795 49.4685 26.8602 48.0369C29.013 46.0871 31.1965 44.1681 33.3 42.1627C34.4748 41.0396 35.7849 40.5892 37.3903 40.6015C44.7834 40.6386 52.1828 40.6201 59.5759 40.6201C63.2417 40.6201 64.8225 39.0466 64.8286 35.3998C64.8286 28.9024 64.8286 22.3987 64.8286 15.9012C64.8286 15.5433 64.8163 15.1792 64.8409 14.8275C64.9086 13.7662 65.5729 13.0443 66.5078 12.9887C67.4734 12.9332 68.3222 13.6613 68.3899 14.7473C68.4637 15.9012 68.4145 17.0612 68.4207 18.2151C68.4207 19.5294 68.4207 20.8376 68.4207 22.3308C68.9496 22.3308 69.4109 22.3308 69.8722 22.3308C82.1183 22.3308 94.3644 22.3246 106.61 22.337C111.051 22.3432 114.237 24.9965 114.889 29.1985C114.951 29.5873 115 30.0007 114.945 30.3894C114.809 31.389 114.194 32.0184 113.198 32.0308C112.22 32.0431 111.568 31.4816 111.402 30.4635C111.371 30.266 111.383 30.0624 111.353 29.8649C111.033 27.5695 109.403 25.9714 107.09 25.9652C94.3705 25.9282 81.6447 25.9467 68.925 25.9529C68.8143 25.9529 68.6974 25.9961 68.4637 26.0516C68.4391 26.4588 68.4022 26.8784 68.396 27.298C68.3899 30.1303 68.4084 32.9625 68.3899 35.7948C68.3591 40.9347 65.0624 44.2298 59.9327 44.2483C57.1525 44.2606 54.3663 44.2483 51.5861 44.2483C51.1556 44.2483 50.725 44.2483 50.1407 44.2483C50.1407 44.7543 50.1407 45.143 50.1407 45.5256C50.1407 49.6721 50.1346 53.8187 50.1407 57.9652C50.1469 61.0751 51.4508 62.5622 54.52 62.988C55.5903 63.1361 56.316 63.9567 56.2176 64.9255C56.1254 65.9066 55.3319 66.5607 54.2186 66.573C50.0915 66.6224 46.5979 63.0065 46.5548 58.5514C46.5118 54.2876 46.5425 50.0177 46.5425 45.7477C46.5425 45.3158 46.5425 44.8777 46.5425 44.31C46.0628 44.2853 45.6445 44.2483 45.2263 44.2483C42.6799 44.2421 40.1335 44.1927 37.5932 44.2791C36.9228 44.3038 36.1294 44.6123 35.6189 45.0628C31.3687 48.8082 27.1432 52.6278 22.9238 56.4473C21.9704 57.3111 21.0171 58.0763 19.6393 57.4346C18.2738 56.7928 18.2246 55.5587 18.2308 54.2814C18.2492 51.4122 18.2369 48.5368 18.2369 45.6675C18.2369 45.2417 18.2369 44.8098 18.2369 44.2298C16.8715 44.2298 15.6536 44.2298 14.4358 44.2298C12.3691 44.2298 10.3025 44.2483 8.23586 44.2236C3.34604 44.1742 0.0185014 40.8237 0.0123507 35.9182C4.92341e-05 26.6255 -0.00610148 17.3327 0.0185014 8.04003C0.0246521 3.63432 3.4137 0.0677963 7.53468 0.0246031C8.78328 0.0122622 9.55212 0.604626 9.65053 1.64126C9.74894 2.72109 9.01085 3.48006 7.73765 3.61581C5.11745 3.89965 3.60437 5.56567 3.59822 8.24365C3.58592 17.4932 3.58592 26.7489 3.59822 35.9984C3.60437 38.8059 5.33272 40.5707 8.12515 40.6077C11.2251 40.6447 14.3251 40.6015 17.4312 40.6201C20.3774 40.6386 21.829 42.0948 21.8474 45.0258C21.8597 47.4137 21.8474 49.8017 21.8474 52.5599Z" fill="#051C2C"/>
<path d="M96.757 66.5544C96.757 69.1152 96.757 71.5031 96.757 73.8911C96.757 74.9709 96.7447 76.0446 96.757 77.1244C96.7693 78.2845 96.4433 79.2594 95.3115 79.7715C94.1737 80.2837 93.251 79.8703 92.3899 79.0866C88.0967 75.1684 83.8035 71.2501 79.4611 67.3874C78.9629 66.9432 78.1572 66.6346 77.4868 66.6223C72.2771 66.5483 67.0674 66.5668 61.8639 66.5606C61.5871 66.5606 61.3042 66.5729 61.0274 66.5482C60.0003 66.4372 59.3237 65.7029 59.336 64.7341C59.3483 63.7592 60.0249 63.0311 61.0705 62.9817C62.1407 62.9324 63.2171 62.9632 64.2935 62.9632C68.6666 62.9632 73.0398 63.0126 77.4129 62.9385C79.1597 62.9077 80.5375 63.4137 81.8169 64.6046C85.4581 67.9921 89.1793 71.2995 93.0358 74.792C93.085 74.3107 93.1465 73.9898 93.1526 73.669C93.1588 71.5525 93.1465 69.4422 93.1588 67.3257C93.1772 64.4441 94.6473 62.9694 97.495 62.9632C100.558 62.957 103.621 62.9694 106.678 62.957C109.661 62.9447 111.402 61.1861 111.408 58.1811C111.414 51.8379 111.408 45.5008 111.414 39.1576C111.414 38.7997 111.39 38.4356 111.433 38.0839C111.549 37.072 112.128 36.4673 113.136 36.4241C114.157 36.3809 114.76 36.9794 114.963 37.9543C115.037 38.2999 115 38.6701 115 39.028C115 45.328 115.006 51.6281 115 57.9343C114.994 63.2902 111.728 66.5483 106.358 66.5544C103.215 66.5606 100.078 66.5544 96.757 66.5544Z" fill="#051C2C"/>
<path d="M44.1991 29.6555C44.8695 30.254 45.5645 30.7908 46.1612 31.4202C46.9484 32.2594 46.93 33.259 46.2042 33.9809C45.4907 34.6905 44.4574 34.7152 43.6455 33.9501C43.012 33.3516 42.4646 32.6605 41.8372 31.9632C38.3067 34.4067 34.604 35.1595 30.6244 33.9871C27.7397 33.1356 25.4578 31.4079 23.791 28.8903C20.3712 23.7133 21.2384 16.9073 25.8453 12.699C30.36 8.57716 37.2734 8.36737 42.0279 12.2054C46.4256 15.7411 48.7629 22.7075 44.1991 29.6555ZM41.4743 27.0207C44.1683 23.1271 43.3564 17.8946 39.8382 15.0561C36.1416 12.0696 30.9074 12.446 27.6721 15.9385C24.4983 19.3631 24.5229 24.645 27.7213 28.082C30.6798 31.2598 35.8956 31.8768 39.1309 29.2544C38.4728 28.6558 37.7962 28.1128 37.1934 27.4896C36.3323 26.5949 36.3262 25.6076 37.095 24.8487C37.8269 24.1267 38.8849 24.1514 39.7398 25.0029C40.361 25.6138 40.8777 26.3172 41.4743 27.0207Z" fill="#DC2648"/>
<path d="M37.9315 0.006326C45.4046 0.006326 52.8716 -0.00601492 60.3447 0.0124965C64.6563 0.0248374 67.8547 2.88176 68.3652 7.12704C68.5374 8.57092 67.9531 9.515 66.8152 9.63224C65.6835 9.74948 65.0192 9.09541 64.8163 7.65153C64.4288 4.94269 62.848 3.59753 59.9941 3.59753C45.1709 3.59136 30.3538 3.59753 15.5305 3.59136C15.1307 3.59136 14.7309 3.61604 14.3373 3.57902C13.2425 3.46795 12.5659 2.69665 12.6274 1.66618C12.6828 0.697417 13.3655 0.0248374 14.448 0.0124965C17.548 -0.0121854 20.6479 0.000155542 23.7479 0.000155542C28.4717 0.006326 33.2016 0.006326 37.9315 0.006326Z" fill="#051C2C"/>
<path d="M80.759 49.9686C79.2582 49.9686 77.4191 49.4379 76.3489 50.1229C75.334 50.7708 75.1249 52.6836 74.5652 54.0473C74.3376 54.5964 74.1408 55.1641 73.9009 55.7133C73.3904 56.8795 72.4063 57.3423 71.416 56.9104C70.4811 56.5031 70.1244 55.522 70.5734 54.3805C71.7666 51.3446 72.9845 48.3149 74.1962 45.2852C75.7769 41.33 77.3699 37.387 78.9322 33.4256C79.2828 32.5432 79.7503 31.8645 80.7959 31.8706C81.7738 31.8768 82.2598 32.5 82.598 33.3454C85.3659 40.2933 88.1521 47.2351 90.92 54.1892C91.5781 55.8491 90.6801 57.33 89.1732 56.9721C88.595 56.8363 87.9492 56.2193 87.6847 55.6516C86.9158 54.0411 86.2946 52.3504 85.6734 50.672C85.4458 50.0612 85.1506 49.7958 84.4679 49.8267C83.2377 49.8884 82.0014 49.8452 80.7713 49.8452C80.759 49.8822 80.759 49.9254 80.759 49.9686ZM83.8589 46.1923C82.8133 43.5883 81.8354 41.151 80.7774 38.5039C79.7134 41.188 78.7354 43.6439 77.7267 46.1923C79.7933 46.1923 81.7185 46.1923 83.8589 46.1923Z" fill="#289FA6"/>
</g>
<defs>
<clipPath id="clip0_3420_197">
<rect width="115" height="80" fill="white"/>
</clipPath>
</defs>
</svg>
