<svg width="121" height="86" viewBox="0 0 121 86" fill="none" xmlns="http://www.w3.org/2000/svg">
<g clip-path="url(#clip0_3420_148)">
<path d="M121 75.7957C120.795 76.5068 120.619 77.2242 120.385 77.9227C118.791 82.6928 114.484 85.9054 109.429 85.9652C103.997 86.0281 98.5614 85.9841 93.1258 85.9841C70.5202 85.9841 47.9178 85.9841 25.3122 85.9841C23.4122 85.9841 22.6496 85.5058 22.615 84.2913C22.5803 83.0358 23.4405 82.4443 25.3185 82.4443C53.1202 82.4443 80.925 82.4474 108.727 82.4411C113.296 82.4411 116.582 79.7729 117.351 75.4811C117.761 73.1873 116.976 72.2622 114.622 72.2622C103.083 72.2622 91.544 72.2622 80.008 72.2622C79.6205 72.2622 79.2329 72.2622 78.672 72.2622C78.672 72.8695 78.6783 73.4012 78.672 73.933C78.6342 77.155 76.5828 79.2222 73.3184 79.2474C68.9479 79.2789 64.5774 79.2569 60.2037 79.2569C56.2649 79.2569 52.3261 79.2569 48.3905 79.2569C44.1964 79.2569 42.3846 77.4508 42.3279 73.225C42.3247 72.9544 42.2995 72.6838 42.2806 72.3157C41.871 72.2968 41.4897 72.2653 41.1116 72.2653C29.4937 72.2622 17.8758 72.2622 6.26104 72.2653C4.06477 72.2653 3.27701 73.203 3.62677 75.3709C4.29794 79.5212 7.59078 82.3782 11.8037 82.4411C13.1429 82.4631 14.4821 82.4191 15.8213 82.4568C17.0943 82.4915 17.8569 83.2246 17.8254 84.2944C17.7939 85.3422 17.0786 86.0155 15.8308 85.9715C13.4391 85.8834 10.9624 86.069 8.68419 85.4932C4.05531 84.3227 1.2824 81.1133 0.226799 76.447C0.176382 76.2236 0.0786996 76.0128 0.00622559 75.7957C0.00622559 74.9304 0.00622559 74.0651 0.00622559 73.1999C1.05237 69.9244 3.32427 68.4833 6.7211 68.7224C6.95742 68.7381 7.19375 68.7224 7.43008 68.713C7.5057 68.7098 7.58133 68.6846 7.85862 68.628C7.85862 68.1812 7.85862 67.6935 7.85862 67.2026C7.85862 46.9518 7.85547 26.701 7.86177 6.45011C7.86177 3.23125 9.44359 0.953183 12.2134 0.210611C12.8121 0.0501394 13.4549 0.00923492 14.0788 0.00608843C45.022 -0.000204562 75.9747 -0.00335106 106.924 0.00294193C110.765 0.00294193 113.144 2.47294 113.144 6.45011C113.151 26.66 113.148 46.8731 113.148 67.0831C113.148 67.5865 113.148 68.0868 113.148 68.7727C116.904 68.3385 119.809 69.3328 121 73.1999C121 74.0651 121 74.9304 121 75.7957ZM11.3972 68.65C44.2311 68.65 76.8601 68.65 109.606 68.65C109.606 68.1529 109.606 67.7312 109.606 67.3065C109.606 47.1311 109.606 26.959 109.606 6.78364C109.606 4.24127 108.913 3.54275 106.398 3.54275C75.7982 3.54275 45.1985 3.54275 14.5955 3.54275C12.0873 3.54275 11.3972 4.24127 11.3972 6.79308C11.3972 26.9684 11.3972 47.1406 11.3972 67.3159C11.3972 67.7375 11.3972 68.1623 11.3972 68.65ZM75.1271 72.3566C65.3053 72.3566 55.619 72.3566 45.8728 72.3566C45.8728 72.8758 45.8665 73.3068 45.8728 73.7348C45.8917 75.2199 46.358 75.7108 47.8642 75.7108C56.2807 75.7202 64.6971 75.7202 73.1135 75.7108C74.667 75.7076 75.1145 75.2199 75.1239 73.6309C75.1302 73.2408 75.1271 72.8506 75.1271 72.3566Z" fill="#051C2C"/>
<path d="M60.5567 6.60742C75.0105 6.60742 89.4612 6.60742 103.915 6.60742C106.058 6.60742 106.534 7.08884 106.534 9.25362C106.534 27.1855 106.534 45.1174 106.534 63.0461C106.534 65.1228 106.01 65.6545 103.978 65.6545C74.9948 65.6545 46.0115 65.6545 17.0282 65.6545C14.9895 65.6545 14.4727 65.1259 14.4727 63.0492C14.4696 45.1174 14.4727 27.1855 14.4727 9.25677C14.4727 7.08254 14.9391 6.60742 17.0849 6.60742C31.5734 6.60742 46.0651 6.60742 60.5567 6.60742ZM102.907 62.0487C102.907 44.7209 102.907 27.4813 102.907 10.2542C74.5788 10.2542 46.336 10.2542 18.0775 10.2542C18.0775 27.5694 18.0775 44.7775 18.0775 62.0487C46.3613 62.0487 74.582 62.0487 102.907 62.0487Z" fill="#289FA6"/>
<path d="M60.4874 20.8361C62.2015 18.5769 64.2749 17.0226 66.9816 16.4908C67.9018 16.3115 68.8565 16.2391 69.7924 16.2359C75.1491 16.2139 80.5028 16.2171 85.8595 16.2265C89.3919 16.2328 91.1438 17.9948 91.1533 21.5283C91.1564 23.0607 91.169 24.5962 91.147 26.1285C91.1281 27.4815 90.4159 28.3216 89.3477 28.3122C88.2764 28.3027 87.621 27.4878 87.6115 26.1002C87.5989 24.4892 87.5895 22.875 87.6147 21.264C87.6304 20.2351 87.205 19.7506 86.14 19.7569C80.5091 19.7757 74.875 19.7097 69.2472 19.7915C65.1856 19.8513 62.3307 22.6925 62.2992 26.7547C62.2299 35.1306 62.2803 43.5066 62.2677 51.8826C62.2645 52.9367 62.7498 53.3551 63.7833 53.3551C71.2261 53.3394 78.6689 53.352 86.1116 53.3426C87.3185 53.3394 87.6052 52.9901 87.6084 51.6214C87.6147 46.3133 87.6115 41.0051 87.6115 35.6939C87.6115 35.3006 87.4886 34.8003 87.6808 34.5391C88.081 33.9885 88.5789 33.3371 89.1744 33.1389C89.9937 32.8652 90.7121 33.3812 90.9894 34.237C91.1312 34.6744 91.147 35.1653 91.147 35.6309C91.1564 40.9391 91.1564 46.2472 91.1533 51.5585C91.1501 55.0763 89.354 56.8855 85.8627 56.8887C78.5775 56.8949 71.2923 56.9296 64.0071 56.8509C62.8412 56.8383 61.6816 56.0706 60.5189 56.0706C59.3561 56.0706 58.1965 56.8383 57.0307 56.8509C49.7076 56.9296 42.3815 56.8949 35.0553 56.8887C31.6963 56.8855 29.8435 55.0542 29.8403 51.7253C29.8309 41.6187 29.834 31.5122 29.8403 21.4056C29.8435 18.0326 31.6396 16.2391 35.0206 16.2328C40.2577 16.2202 45.4978 16.2957 50.7317 16.2076C54.7241 16.1321 57.9697 17.4631 60.4874 20.8361ZM33.3884 36.4773C33.3884 41.5463 33.3821 46.6153 33.3915 51.6843C33.3947 53.0436 33.6972 53.3425 35.0647 53.3457C42.3846 53.352 49.7045 53.352 57.0244 53.3457C58.4707 53.3457 58.7228 53.0877 58.7228 51.6025C58.7291 43.4689 58.7417 35.3352 58.7196 27.2015C58.707 22.6265 55.8522 19.7915 51.2579 19.7695C45.9075 19.7443 40.5539 19.76 35.2034 19.7663C33.5869 19.7663 33.3915 19.974 33.3915 21.6227C33.3852 26.5753 33.3884 31.5248 33.3884 36.4773Z" fill="#051C2C"/>
<path d="M75.9055 26.4811C73.8226 26.4811 71.7429 26.4905 69.6601 26.4779C68.2831 26.4685 67.4922 25.8077 67.4922 24.7096C67.4922 23.6146 68.2926 22.9476 69.6664 22.9444C73.8699 22.9381 78.0734 22.935 82.2769 22.9444C83.5814 22.9476 84.3503 23.5926 84.3818 24.653C84.4164 25.77 83.6318 26.4654 82.2706 26.4748C80.1468 26.4937 78.0261 26.4811 75.9055 26.4811Z" fill="#DC2648"/>
<path d="M75.918 32.3807C73.7974 32.3807 71.6767 32.3901 69.5561 32.3775C68.261 32.3681 67.5016 31.7073 67.4953 30.6343C67.489 29.5677 68.261 28.8534 69.5372 28.8503C73.7785 28.8314 78.0229 28.8346 82.2642 28.8471C83.6255 28.8503 84.4101 29.5582 84.3817 30.6721C84.3565 31.7356 83.594 32.3712 82.2831 32.3775C80.1593 32.3901 78.0387 32.3807 75.918 32.3807Z" fill="#DC2648"/>
<path d="M75.9212 38.2896C73.8005 38.2896 71.6799 38.299 69.5592 38.2864C68.2547 38.277 67.5047 37.6288 67.4953 36.5496C67.489 35.486 68.261 34.7655 69.534 34.7592C73.7753 34.7403 78.0166 34.7403 82.2611 34.7561C83.6255 34.7624 84.4069 35.4672 84.3786 36.5842C84.3534 37.6477 83.594 38.2801 82.2831 38.2864C80.1625 38.299 78.0418 38.2896 75.9212 38.2896Z" fill="#DC2648"/>
<path d="M75.8928 44.202C73.81 44.202 71.7303 44.2083 69.6475 44.1988C68.2516 44.1925 67.4827 43.5538 67.4922 42.4368C67.5016 41.3796 68.2736 40.6747 69.5592 40.6685C73.8005 40.6496 78.0418 40.6496 82.2831 40.6685C83.6475 40.6747 84.4164 41.3984 84.3754 42.5217C84.3345 43.5853 83.5908 44.1894 82.2548 44.1957C80.1341 44.2114 78.0135 44.202 75.8928 44.202Z" fill="#DC2648"/>
<path d="M71.1725 50.1049C70.5077 50.1049 69.8396 50.1332 69.1748 50.0986C68.2231 50.0514 67.6371 49.5322 67.5236 48.5882C67.407 47.5908 67.8797 46.7885 68.8534 46.6972C70.3627 46.5525 71.9004 46.5651 73.4161 46.6846C74.3362 46.757 74.8561 47.509 74.8057 48.4372C74.7521 49.4063 74.1912 50.0356 73.1671 50.0954C72.5054 50.1363 71.8374 50.1049 71.1725 50.1049Z" fill="#DC2648"/>
<path d="M38.7106 37.4465C38.7106 35.5208 38.7326 33.592 38.7011 31.6664C38.6822 30.4644 39.0603 29.4984 40.1537 28.9132C41.1967 28.3563 42.1925 28.5419 43.1567 29.1712C46.1218 31.1031 49.1059 33.0068 52.0584 34.9544C54.094 36.298 54.116 38.5163 52.0993 39.8535C49.1185 41.8295 46.1155 43.7804 43.0874 45.6903C40.9068 47.0653 38.7421 45.8256 38.7106 43.2234C38.6917 41.3009 38.7106 39.3753 38.7106 37.4465ZM42.3185 32.8557C42.3185 35.9896 42.3185 38.8687 42.3185 41.9869C44.7196 40.4294 46.9663 38.9725 49.3548 37.4244C46.9789 35.8827 44.7291 34.4195 42.3185 32.8557Z" fill="#DC2648"/>
</g>
<defs>
<clipPath id="clip0_3420_148">
<rect width="121" height="86" fill="white"/>
</clipPath>
</defs>
</svg>
