<svg width="39" height="49" viewBox="0 0 39 49" fill="none" xmlns="http://www.w3.org/2000/svg">
<path d="M31.9522 43.2449C31.5251 44.3262 31.1069 45.3577 30.7105 46.3982C30.3937 47.228 29.846 47.7705 28.934 47.8573C27.9822 47.948 27.319 47.505 26.8534 46.6982C25.1487 43.7453 23.4427 40.7951 21.7148 37.8563C21.5699 37.6099 21.2877 37.4095 21.0247 37.2716C19.8831 36.6703 18.7376 36.812 17.623 37.3571C17.4408 37.4465 17.2805 37.6342 17.1753 37.8142C15.45 40.7721 13.7312 43.7351 12.0188 46.7007C11.6545 47.3314 11.1606 47.7692 10.4154 47.8548C9.41357 47.9697 8.6016 47.4846 8.21422 46.5296C7.7781 45.4547 7.36378 44.3696 6.92253 43.2462C5.92201 43.3955 4.93047 43.5513 3.93636 43.6892C3.55924 43.7415 3.16673 43.8156 2.79602 43.7696C1.3581 43.5934 0.582052 42.124 1.23239 40.8372C1.46969 40.3687 1.75061 39.9231 2.01485 39.4687C3.38992 37.098 4.76628 34.7299 6.13622 32.3566C6.29143 32.0885 6.56208 31.7502 6.49923 31.5204C6.3607 31.0149 6.10415 30.5119 5.77963 30.097C5.52693 29.7727 5.11774 29.5506 4.74704 29.3361C2.89351 28.2625 2.22265 26.8748 2.59848 24.7812C2.78576 23.742 2.65364 22.7871 1.97893 21.9394C1.90967 21.8526 1.84809 21.7581 1.78781 21.6649C0.766763 20.096 0.737261 18.5015 1.82501 16.9836C2.56513 15.9508 2.78833 14.9052 2.56257 13.6618C2.2265 11.8056 2.9538 10.3311 4.62518 9.42727C5.6847 8.85534 6.30554 8.04724 6.61852 6.89445C7.15213 4.93101 8.36943 3.98504 10.4269 3.87397C11.5326 3.81397 12.4023 3.4029 13.1206 2.54757C14.438 0.978601 16.0131 0.604551 17.8885 1.41903C18.9429 1.87734 19.9293 1.87989 20.9824 1.41776C22.8282 0.609658 24.4291 0.973494 25.7169 2.5131C26.4699 3.41311 27.378 3.83567 28.5389 3.88163C30.3911 3.95568 31.6957 4.92208 32.1869 6.71573C32.5397 8.00511 33.2516 8.85406 34.3996 9.53961C36.1505 10.5852 36.5777 11.7622 36.2865 13.7576C36.1185 14.9116 36.2737 15.9023 36.9663 16.8636C38.1541 18.5117 38.1529 20.1662 36.9625 21.8169C36.2686 22.7794 36.0761 23.7752 36.2981 24.9241C36.6623 26.811 35.9273 28.3097 34.2021 29.2838C33.3991 29.737 32.718 30.2681 32.4319 31.1936C32.3409 31.4872 32.3511 31.7196 32.5102 31.9928C34.1828 34.8524 35.8376 37.7235 37.5077 40.5857C37.9053 41.2674 38.0066 41.9555 37.6552 42.6768C37.2768 43.453 36.4315 43.8998 35.5489 43.7773C34.3637 43.6113 33.181 43.4275 31.9522 43.2449ZM34.3316 12.9635C34.4163 12.0992 33.9212 11.5554 33.2413 11.203C31.6623 10.386 30.69 9.13875 30.2783 7.4217C30.0538 6.48466 29.4381 5.92422 28.4453 5.9038C26.6879 5.86677 25.3077 5.1608 24.1456 3.8395C23.281 2.85778 22.9591 2.81566 21.7764 3.30971C20.1884 3.97227 18.6632 3.9927 17.0893 3.29822C16.0388 2.8348 15.4885 2.99566 14.7009 3.83057C14.6355 3.90078 14.5714 3.971 14.5098 4.04504C13.4965 5.26166 12.1817 5.83358 10.6091 5.89231C9.45205 5.93571 8.88509 6.32763 8.59776 7.43319C8.15907 9.12215 7.20857 10.3388 5.66675 11.1903C4.61492 11.7711 4.38916 12.1669 4.61748 13.4907C4.89712 15.1172 4.63159 16.5751 3.6516 17.9232C2.86786 19.0019 2.86786 19.6581 3.65673 20.7509C4.63031 22.1015 4.8984 23.5594 4.6162 25.1859C4.39301 26.4727 4.60209 26.8889 5.71421 27.5067C7.20472 28.3353 8.13726 29.5187 8.57339 31.1515C8.89022 32.3375 9.34302 32.6988 10.5706 32.7626C12.2317 32.8494 13.5798 33.4813 14.6483 34.7694C15.4269 35.7077 16.0337 35.8469 17.1458 35.3554C18.6902 34.6724 20.1961 34.689 21.7392 35.3554C22.8718 35.8443 23.435 35.7141 24.2315 34.7618C25.2795 33.5107 26.5904 32.8749 28.2182 32.7702C29.601 32.6822 29.973 32.3783 30.3334 31.0519C30.7593 29.4855 31.6623 28.3506 33.0887 27.5565C34.2444 26.9131 34.4715 26.4752 34.2508 25.1271C34.0148 23.6909 34.0879 22.2994 35.0064 21.1173C35.9658 19.8828 35.9479 18.7696 34.9999 17.5389C34.2085 16.5112 33.9917 15.2895 34.2021 14.0027C34.2572 13.6593 34.2893 13.3107 34.3316 12.9635ZM14.8998 37.6444C14.1455 36.9767 13.4349 36.392 12.7794 35.7537C12.1996 35.1894 11.5416 34.8741 10.7348 34.8409C9.6265 34.7962 8.58878 34.5345 7.67933 33.7775C6.1452 36.4252 4.62261 39.0474 3.06924 41.7244C3.26037 41.7155 3.38351 41.7219 3.5028 41.704C4.51487 41.5521 5.53334 41.4359 6.53515 41.2342C8.44383 40.85 8.39252 41.3874 8.87226 42.6104C9.28401 43.6585 9.69833 44.7054 10.1447 45.839C11.7789 43.024 13.3656 40.2882 14.8998 37.6444ZM31.1903 33.7762C30.2834 34.5333 29.2611 34.7924 28.1695 34.8396C27.3857 34.8728 26.7238 35.1448 26.1505 35.6975C25.4693 36.355 24.742 36.9652 23.975 37.6495C25.4963 40.2717 27.0881 43.0138 28.7146 45.8173C28.7967 45.636 28.8455 45.5377 28.8852 45.4369C29.347 44.2687 29.8049 43.0981 30.2693 41.9313C30.5502 41.2266 30.8978 41.0287 31.6392 41.1385C32.2716 41.2317 32.9027 41.3325 33.5351 41.4244C34.2649 41.5317 34.9961 41.6338 35.817 41.75C34.247 39.0448 32.7308 36.4316 31.1903 33.7762Z" fill="#289FA6" stroke="#289FA6" stroke-miterlimit="10"/>
<path d="M19.4072 31.578C12.6909 31.5895 7.15086 26.0821 7.14059 19.3824C7.13033 12.5819 12.6255 7.10774 19.4598 7.11157C26.2146 7.1154 31.7213 12.5806 31.7303 19.2892C31.738 26.0732 26.2313 31.5652 19.4072 31.578ZM19.447 29.5226C25.1538 29.4907 29.7318 24.8974 29.6856 19.2509C29.6407 13.6925 25.0178 9.1197 19.4688 9.14523C13.7197 9.17204 9.166 13.7206 9.18525 19.4207C9.20449 24.9804 13.8505 29.5545 19.447 29.5226Z" fill="#289FA6" stroke="#289FA6" stroke-miterlimit="10"/>
<path d="M19.27 20.7996C20.2718 19.3072 21.2364 17.8672 22.2023 16.4284C22.3613 16.191 22.5114 15.9446 22.6846 15.7161C23.0604 15.2207 23.6453 15.1186 24.1186 15.4505C24.5689 15.7671 24.6907 16.348 24.3726 16.8471C23.9288 17.5455 23.4568 18.2272 22.9963 18.9153C22.1368 20.1983 21.2787 21.4826 20.4141 22.763C19.8754 23.5622 19.2353 23.6298 18.5555 22.9583C17.6255 22.0392 16.6981 21.1162 15.7746 20.1906C15.2602 19.6749 15.2166 19.0646 15.6501 18.6319C16.0952 18.1889 16.6891 18.2272 17.215 18.7468C17.8975 19.417 18.567 20.0961 19.27 20.7996Z" fill="#289FA6" stroke="#289FA6" stroke-miterlimit="10"/>
</svg>
